<?xml version="1.0" encoding="utf-8"?>
<!-- Generator: Adobe Illustrator 17.1.0, SVG Export Plug-In . SVG Version: 6.00 Build 0)  -->
<!DOCTYPE svg PUBLIC "-//W3C//DTD SVG 1.1//EN" "http://www.w3.org/Graphics/SVG/1.1/DTD/svg11.dtd">
<svg version="1.1" id="Layer_1" xmlns="http://www.w3.org/2000/svg" xmlns:xlink="http://www.w3.org/1999/xlink" x="0px" y="0px"
	 viewBox="0 0 27 33" enable-background="new 0 0 27 33" xml:space="preserve">
<g>
	<path fill="#BDC3C7" d="M21.1,1.5c0.1,0,0.3,0.1,0.4,0.1c1.5,0.4,2.6,1.6,2.6,3.2c0,2,0,4,0,6c0,0,0,0,0,0.1
		c-0.1-0.1-0.3-0.2-0.4-0.3c-0.5-0.4-1-0.9-1.5-1.3C22,9,21.9,8.8,21.9,8.5c0-1.1,0-2.2,0-3.3c0-1-0.5-1.4-1.4-1.4
		c-5.2,0-10.4,0-15.6,0c-0.2,0-0.4,0-0.6,0.1C3.7,4,3.4,4.5,3.4,5.2c0,1.7,0,3.4,0,5c0,5.8,0,11.7,0,17.6c0,0.2,0,0.3,0,0.5
		c0.1,0.5,0.4,0.9,0.9,1c0.1,0,0.3,0,0.5,0c5.2,0,10.4,0,15.6,0c0.2,0,0.4,0,0.6-0.1c0.5-0.1,0.8-0.6,0.8-1.2c0-1.1,0-2.3,0-3.5
		c0-0.2,0-0.4,0.2-0.6c0.6-0.5,1.2-1,1.8-1.5c0.1,0,0.1-0.1,0.2-0.2c0,0.1,0,0.2,0,0.2c0,1.9,0,3.8,0,5.6c0,1.7-1.1,3-2.7,3.4
		c-0.1,0-0.2,0.1-0.4,0.1c-5.6,0-11.2,0-16.9,0c-0.3-0.1-0.7-0.1-1-0.3c-1.3-0.5-2.1-1.8-2.1-3.4c0-7.6,0-15.2,0-22.8
		c0-0.1,0-0.2,0-0.3C1.2,3.2,2.3,2,3.8,1.6c0.1,0,0.3-0.1,0.4-0.1C9.9,1.5,15.5,1.5,21.1,1.5z"/>
	<path fill="#BDC3C7" d="M16.1,13c0-0.7,0-1.3,0-1.9c0-0.5,0-0.9,0-1.4c0-0.3,0.2-0.6,0.5-0.7C17,8.9,17.2,9,17.5,9.2
		c2.8,2.4,5.5,4.8,8.3,7.2c0,0,0.1,0.1,0.1,0.1c-0.1,0.1-0.2,0.1-0.2,0.2c-2.7,2.3-5.4,4.7-8.1,7.1C17.3,24,17,24.1,16.7,24
		s-0.5-0.4-0.5-0.7c0-0.5,0-0.9,0-1.4c0-0.6,0-1.2,0-1.9c-0.1,0-0.2,0-0.4,0c-2.1,0-4.2,0-6.4,0c-0.9,0-1.3-0.5-1.3-1.4
		c0-1.4,0-2.8,0-4.2c0-0.9,0.4-1.4,1.4-1.4c2.1,0,4.2,0,6.3,0C15.9,13,16,13,16.1,13z"/>
</g>
</svg>
