<svg id="cloudPicture" height="170px" width="252px">
	<defs>
		<linearGradient id="progression" x1="0" y1="0" x2="100%" y2="0">
			<stop offset="0%" stop-color="#2ecc71" />
			<stop offset="0%" stop-color="#FFFFFF" />
		</linearGradient>
	</defs>
	<path
		id="cloudPath"
		d="M205.6,169h-155c-28,0-49.8-22.8-49.8-50.8
			C0.9,96.7,13,78.5,32,71.2c-0.1-1.4-0.2-2.7-0.2-4.1c0-22.3,18.1-40.4,40.4-40.4c9.7,0,18.2,3.2,25.2,8.8
			C108,15.6,128.9,2.2,152.9,2.2c34.7,0,62.9,28.2,62.9,62.9c0,3-0.2,5.9-0.6,8.8c21.5,5.1,36.1,24.1,36.1,46.9
			C251.3,146.5,231.5,167.6,205.6,169"
		fill="url(#progression)"
		/>
	<path
		id="tickPath"
		d="m 81.691766,105.38213 29.471174,25.12269 55.748,-64.444933"
		fill="none"
		stroke="#2ecc71"
		stroke-width="14.3"
		stroke-linecap="round"
		stroke-linejoin="round"
		stroke-miterlimit="4"
		display="none"
		/>
	<path
		id="arrowPath"
		fill="none"
		fill-opacity="1"
		stroke="none"
		stroke-width="6.24"
		stroke-linecap="round"
		stroke-linejoin="round"
		stroke-miterlimit="4"
		stroke-opacity="1"
		stroke-dasharray="none"
		d="m 111.92478,62.972017 0,50.340483 -25.281248,0 38.781248,38.78125 38.78125,-38.78125 -25.28125,0 0,-50.340483 z"
		/>
</svg>
