<svg version="1.1" xmlns="http://www.w3.org/2000/svg" x="0px" y="0px"
	 width="160px" height="120px">
<g>
	<path fill-rule="evenodd" clip-rule="evenodd" fill="#FFFFFF" d="M109.7,0c0.6,0.1,1.1,0.3,1.7,0.4c6.1,1.5,10.5,6.5,10.6,12.7
		c0.2,8,0.1,16.1,0.1,24.1c0,0.1-0.1,0.1-0.2,0.3c-0.5-0.5-1.1-0.9-1.6-1.3c-2.1-1.8-4.1-3.6-6.2-5.3c-0.9-0.7-1.2-1.5-1.2-2.7
		c0.1-4.4,0-8.8,0-13.2c0-4-1.8-5.7-5.7-5.7c-20.9,0-41.7,0-62.6,0c-0.8,0-1.7,0.1-2.5,0.3c-2.1,0.6-3.2,2.4-3.2,5.1
		c0,6.7,0,13.4,0,20c0,23.4,0,46.9,0,70.3c0,0.7,0,1.3,0.1,2c0.3,2,1.7,3.5,3.7,3.8c0.6,0.1,1.2,0.1,1.9,0.1c20.9,0,41.7,0,62.6,0
		c0.8,0,1.7-0.1,2.5-0.3c2.1-0.6,3.1-2.4,3.1-5c0-4.6,0-9.3,0-13.9c0-1,0.2-1.6,1-2.3c2.4-2,4.8-4.1,7.2-6.2c0.3-0.2,0.5-0.4,1-0.8
		c0,0.5,0,0.7,0,1c0,7.5,0,15.1,0,22.6c0,6.7-4.3,12.1-10.8,13.7c-0.5,0.1-1,0.3-1.6,0.4c-22.5,0-45,0-67.5,0
		c-1.3-0.4-2.7-0.6-3.9-1.2c-5.3-2.2-8.5-7.2-8.5-13.4c0-30.3,0-60.7,0-91c0-0.4,0-0.9,0-1.3C30.2,7,34.3,2,40.4,0.4
		C41,0.3,41.6,0.2,42.2,0C64.7,0,87.2,0,109.7,0z"/>
	<path fill-rule="evenodd" clip-rule="evenodd" fill="#FFFFFF" d="M89.8,46.2c0-2.7,0-5.2,0-7.7c0-1.9,0.1-3.8,0.2-5.7
		c0.1-1.2,0.7-2.2,1.9-2.7c1.2-0.5,2.2-0.2,3.2,0.7c11.1,9.6,22.1,19.2,33.2,28.8c0.1,0.1,0.3,0.3,0.5,0.5c-0.3,0.3-0.6,0.5-0.8,0.8
		c-10.9,9.4-21.7,18.8-32.6,28.3c-1.1,0.9-2.1,1.3-3.4,0.8c-1.3-0.5-2-1.6-2.1-2.9c-0.2-1.9-0.2-3.7-0.2-5.6c0-2.5,0-4.9,0-7.5
		c-0.5,0-1,0-1.4,0c-8.5,0-17,0-25.5,0c-3.5,0-5.3-1.8-5.3-5.4c0-5.6,0-11.3,0-16.9c0-3.6,1.8-5.4,5.4-5.4c8.4,0,16.9,0,25.3,0
		C88.7,46.2,89.1,46.2,89.8,46.2z"/>
</g>
</svg>
