<?xml version="1.0" encoding="utf-8"?>
<!-- Generator: Adobe Illustrator 16.0.0, SVG Export Plug-In . SVG Version: 6.00 Build 0)  -->
<!DOCTYPE svg PUBLIC "-//W3C//DTD SVG 1.1//EN" "http://www.w3.org/Graphics/SVG/1.1/DTD/svg11.dtd">
<svg version="1.1"
	 id="svg6011" xmlns:cc="http://creativecommons.org/ns#" xmlns:rdf="http://www.w3.org/1999/02/22-rdf-syntax-ns#" xmlns:svg="http://www.w3.org/2000/svg" xmlns:dc="http://purl.org/dc/elements/1.1/"
	 xmlns="http://www.w3.org/2000/svg" xmlns:xlink="http://www.w3.org/1999/xlink" x="0px" y="0px" width="1600px" height="1200px"
	 viewBox="0 0 1600 1200" enable-background="new 0 0 1600 1200" xml:space="preserve">
<g id="layer1" transform="translate(-167.05 -379.6)">
	<path fill="#B3B3B3" d="M167.05,379.6v1200h1600v-1200H167.05z M1494.67,1313.53c-37.34,0-72.8-10.14-104.2-27.8
		c-45.6,78.021-129.3,130.271-225.05,130.271c-73.71,0-140.25-30.87-187.8-80.7c-55.34,38.54-130.26,62.28-212.94,62.28
		c-102.66,0-193.62-36.632-249.59-92.762c-32.44,17.44-69.78,27.46-109.35,27.46c-125.86,0-227.79-100.35-227.79-224.02
		S279.88,884.24,405.74,884.24c19.32,0,38.11,2.25,56.03,6.7c25.45-131.33,141.85-230.39,281.7-230.39
		c41.49,0,81.01,8.4,116.62,24.11c49.6-134.44,171.4-229.38,313.8-229.38l0.01-0.02c171.99,0,314.03,138.54,335.012,317.79
		c123.83,8.49,222.02,125.979,222.02,269.898C1730.93,1192.39,1625.17,1313.53,1494.67,1313.53z"/>
	<path fill="#E6E6E6" stroke="#CCCCCC" stroke-width="2" stroke-linecap="round" stroke-linejoin="round" d="M1757.31,1130.89
		c0,149.44-105.76,270.58-236.27,270.58c-37.33,0-72.801-10.14-104.19-27.79c-45.6,78.01-129.3,130.26-225.06,130.26
		c-73.7,0-140.25-30.859-187.8-80.7c-55.341,38.54-130.25,62.29-212.94,62.29c-102.66,0-193.61-36.64-249.59-92.76
		c-32.43,17.43-69.78,27.46-109.35,27.46c-120.38,0-218.87-91.81-227.21-208.03c38.08,71.37,114.15,120.08,201.84,120.08
		c39.57,0,76.91-10.02,109.35-27.46c55.97,56.13,146.93,92.761,249.59,92.761c82.681,0,157.601-23.739,212.94-62.279
		c47.55,49.83,114.09,80.699,187.8,80.699c95.75,0,179.45-52.25,225.05-130.271c31.4,17.66,66.86,27.8,104.2,27.8
		c130.5,0,236.26-121.14,236.26-270.58c0-13.46-0.86-26.688-2.52-39.619C1747.21,1041.32,1757.31,1084.75,1757.31,1130.89z"/>
	<path fill="none" stroke="#000000" stroke-width="2" stroke-linecap="round" stroke-linejoin="round" d="M1730.93,1042.95
		c0,149.44-105.76,270.58-236.26,270.58c-37.34,0-72.8-10.14-104.2-27.8c-45.6,78.021-129.3,130.271-225.05,130.271
		c-73.71,0-140.25-30.869-187.8-80.699c-55.34,38.54-130.26,62.279-212.94,62.279c-102.66,0-193.62-36.631-249.59-92.761
		c-32.44,17.44-69.78,27.46-109.35,27.46c-125.86,0-227.79-100.35-227.79-224.02S279.88,884.24,405.74,884.24
		c19.32,0,38.11,2.25,56.03,6.7c25.45-131.33,141.85-230.39,281.7-230.39c41.49,0,81.01,8.4,116.62,24.11
		c49.6-134.44,171.4-229.38,313.8-229.38l0.01-0.02c171.99,0,314.03,138.54,335.012,317.79
		C1632.74,781.54,1730.93,899.03,1730.93,1042.95z"/>
</g>
</svg>
