<?xml version="1.0" encoding="utf-8"?>
<!-- extracted from GitHub Octicons SVG -->
<svg version="1.1" xmlns="http://www.w3.org/2000/svg" xmlns:xlink="http://www.w3.org/1999/xlink" width="128px" height="125px">
  <defs>
    <g id="image" transform="scale(0.125,-0.125)">
      <path d="M512 832c-283 0-512-229-512-512 0-226 147-418 350-486 26-5 35 11 35 25 0 12 0 53-1 95-142-31-172 60-172 60-23 59-57 75-57 75-47 32 4 31 4 31 51-4 78-53 78-53 46-78 120-56 149-43 5 33 18 56 33 68-114 13-233 57-233 253 0 56 20 102 53 137-5 13-23 65 5 136 0 0 43 14 141-53 41 11 85 17 128 17 44 0 87-6 128-17 98 66 141 53 141 53 28-71 10-123 5-136 33-36 53-81 53-137 0-197-120-240-234-253 18-16 35-47 35-95 0-68-1-124-1-141 0-14 9-30 35-25 203 68 350 260 350 486 0 283-229 512-512 512z" />
    </g>
  </defs>

  <use xlink:href="#image" x="0" y="104" fill="#505050"/>
</svg>